<svg width="269" height="35" fill="none" xmlns="http://www.w3.org/2000/svg"><path d="M268.14 15.699c-.449-1.41-1.347-2.388-2.637-2.388-.683 0-1.27.372-1.27 1.037 0 1.742 4.767 1.194 4.767 4.346 0 1.546-1.172 2.564-3.028 2.564-1.348 0-1.953-.41-2.246-.41-.313 0-.489.136-.665.41h-.215v-2.897h.274c.469 1.664 1.563 2.486 2.794 2.486 1.094 0 1.543-.587 1.543-1.194 0-.548-.43-1.292-2.266-1.86-1.368-.43-2.364-1.39-2.364-2.564 0-1.487 1.25-2.33 2.715-2.33 1.133 0 1.719.412 2.012.412.196 0 .45-.176.567-.411h.273v2.799h-.273.019zm-13.479-1.546c0-.568-.176-.627-.996-.627v-.41h6.994l.781 2.172h-.332c-1.133-1.273-1.973-1.762-3.751-1.762-.586 0-.723.059-.723.51v2.68h.528c1.465 0 1.992-.43 2.305-1.604h.332v3.523h-.332c-.234-1.135-.879-1.507-2.305-1.507h-.528v3.014c0 .333.137.47 1.192.47 1.602 0 2.5-.41 3.379-1.898h.372l-.625 2.31h-7.307v-.412c.821 0 .997-.058.997-.626v-5.833h.019zm-2.442 4.15v2.955h-.273c-.137-.352-.332-.548-.606-.548-.351 0-1.387.548-2.832.548-2.56 0-4.357-1.84-4.357-4.032 0-2.447 1.758-4.326 4.572-4.326 1.172 0 2.148.41 2.617.41a.746.746 0 0 0 .606-.332h.273v2.486h-.332c-.625-1.194-1.524-2.153-2.969-2.153-1.543 0-2.618 1.155-2.618 3.758 0 2.839 1.348 3.759 2.54 3.759 1.309 0 2.364-1.097 3.047-2.526h.332zm-10.373-3.7c0-.94-.547-1.077-1.27-1.077v-.41h2.872v.41c-.527 0-1.055.118-1.055 1.096v6.636h-.469l-6.173-7.008v5.227c0 .94.293 1.135 1.192 1.135v.411h-2.872v-.41c.781 0 1.114-.157 1.114-1.743v-4.424c0-.802-.137-.92-1.075-.92v-.41h3.087l4.61 5.304v-3.817h.039zm-15.648-.45c0-.568-.175-.627-.996-.627v-.41h6.994l.781 2.172h-.332c-1.133-1.273-1.973-1.762-3.751-1.762-.586 0-.723.059-.723.51v2.68h.528c1.465 0 1.992-.43 2.305-1.604h.332v3.523h-.332c-.234-1.135-.879-1.507-2.305-1.507h-.528v3.014c0 .333.137.47 1.192.47 1.602 0 2.501-.41 3.38-1.898h.371l-.625 2.31h-7.306v-.412c.82 0 .996-.058.996-.626v-5.833h.019zm-8.048 6.01c0 .253.058.469 1.113.469 2.247 0 3.087-1.88 3.087-3.387 0-2.72-1.504-3.719-3.184-3.719-.879 0-.997.216-.997.685v5.951h-.019zm-1.973-6.01c0-.568-.176-.627-.997-.627v-.41h4.415c2.716 0 4.904 1.487 4.904 3.973 0 2.036-1.856 3.974-4.591 3.974h-4.728v-.412c.821 0 .997-.058.997-.626v-5.873zm-5.372 0c0-.568-.176-.627-.997-.627v-.41h3.966v.41c-.82 0-.996.059-.996.627v5.833c0 .568.176.626.996.626v.411h-3.966v-.41c.821 0 .997-.06.997-.627v-5.833zm-3.341 1.546c-.449-1.41-1.348-2.388-2.637-2.388-.684 0-1.27.372-1.27 1.037 0 1.742 4.767 1.194 4.767 4.346 0 1.546-1.172 2.564-3.028 2.564-1.348 0-1.954-.41-2.247-.41-.312 0-.488.136-.664.41h-.215v-2.897h.274c.468 1.664 1.562 2.486 2.793 2.486 1.094 0 1.543-.587 1.543-1.194 0-.548-.429-1.292-2.266-1.86-1.367-.43-2.363-1.39-2.363-2.564 0-1.487 1.25-2.33 2.715-2.33 1.133 0 1.719.412 2.012.412.195 0 .449-.176.567-.411h.273v2.799h-.273.019zm-13.499-1.546c0-.568-.176-.627-.996-.627v-.41h6.994l.781 2.172h-.332c-1.133-1.273-1.973-1.762-3.751-1.762-.586 0-.723.059-.723.51v2.68h.528c1.465 0 1.992-.43 2.305-1.604h.332v3.523h-.332c-.235-1.135-.879-1.507-2.305-1.507h-.528v3.014c0 .333.137.47 1.192.47 1.602 0 2.5-.41 3.38-1.898h.371l-.625 2.31h-7.307v-.412c.821 0 .997-.058.997-.626v-5.833h.019zm-7.716 2.681h.684c.937 0 1.777-.43 1.777-1.644 0-.705-.39-1.664-2.031-1.664h-.45v3.308h.02zm-1.973-2.681c0-.568-.176-.627-.997-.627v-.41h3.966c2.559 0 3.458 1.193 3.458 2.211 0 1.018-.762 1.644-2.051 1.723v.039c.41 0 .703.196 1.035.705l1.309 2.035c.469.764.703.803 1.172.803v.41h-2.735l-1.856-3.307c-.215-.392-.508-.51-1.348-.51v2.78c0 .568.176.627.997.627v.41h-3.966v-.41c.82 0 .996-.059.996-.627v-5.833l.02-.02zm-76.871 3.484h2.656l1.114-1.605h-2.657l-1.113 1.605zm-65.15 2.349c0 .568-.176.626-.997.626v.411h3.986v-.41c-.82 0-.997-.06-.997-.627v-6.107c0-.294.137-.412.41-.412.684 0 1.837.627 2.501 1.86l.313-.117-.47-2.33h-.331a1.723 1.723 0 0 1-.782.215h-5.255c-.136 0-.273 0-.41-.058a2.11 2.11 0 0 1-.371-.157h-.332l-.469 2.33.313.117c.664-1.233 1.816-1.86 2.5-1.86.274 0 .41.118.41.412v6.107h-.02zm13.01 0c0 .568-.176.626-.996.626v.411h3.985v-.41c-.82 0-.996-.06-.996-.627v-5.853c0-.568.176-.626.996-.626v-.412H54.27v.412c.82 0 .996.058.996.626v2.427h-4.044v-2.427c0-.568.176-.626.997-.626v-.412h-3.986v.412c.821 0 .997.058.997.626v5.853c0 .568-.176.626-.996.626v.411h3.985v-.41c-.82 0-.997-.06-.997-.627v-2.858h4.044v2.858zm5.236 0c0 .568-.176.626-.997.626v.411h7.326l.625-2.31h-.371c-.899 1.488-1.797 1.9-3.4 1.9-1.054 0-1.21-.157-1.21-.47v-3.015H63c1.426 0 2.09.392 2.305 1.507h.332v-3.543h-.332c-.332 1.175-.84 1.605-2.305 1.605h-.527v-2.681c0-.45.136-.51.723-.51 1.797 0 2.637.49 3.77 1.762h.332l-.782-2.173h-7.013v.412c.82 0 .997.058.997.626v5.853zm16.292-3.152h-.703v-3.327h.45c1.64 0 2.03.959 2.03 1.664 0 1.213-.84 1.663-1.796 1.663h.019zm4.063 2.976-1.309-2.036c-.332-.509-.625-.705-1.035-.705v-.039c1.29-.078 2.051-.744 2.051-1.723 0-.978-.898-2.212-3.457-2.212H73.12v.412c.82 0 .997.058.997.626v5.853c0 .568-.176.626-.997.626v.411h3.986v-.41c-.82 0-.997-.06-.997-.627v-2.78c.84 0 1.133.118 1.348.51l1.856 3.327h2.735v-.411c-.469 0-.703-.04-1.172-.803l-.02-.02zm3.224.176c0 .568-.176.626-.997.626v.411h3.986v-.41c-.821 0-.997-.06-.997-.627v-5.853c0-.568.176-.626.996-.626v-.412h-3.985v.412c.82 0 .997.058.997.626v5.853zm6.974 0c0 .568-.196.626-.997.626v.411h3.986v-.41c-.82 0-.997-.06-.997-.627v-6.107c0-.294.137-.412.41-.412.684 0 1.837.627 2.501 1.86l.313-.117-.47-2.33h-.331a1.723 1.723 0 0 1-.782.215h-5.255c-.136 0-.273 0-.41-.058a2.106 2.106 0 0 1-.371-.157h-.332l-.489 2.33.313.117c.664-1.233 1.817-1.86 2.5-1.86.274 0 .41.118.41.412v6.107zm5.958 1.057h6.915l.84-2.388h-.332c-1.152 1.546-1.875 2.016-3.008 2.016h-1.934l5.02-7.36v-.216h-6.798l-.742 2.232h.273c.919-1.213 1.876-1.8 2.931-1.8h1.816l-4.962 7.242v.274h-.02zm24.243-2.74c-.703 1.428-1.738 2.544-3.047 2.544-1.212 0-2.54-.92-2.54-3.778 0-2.603 1.075-3.778 2.618-3.778 1.445 0 2.344.979 2.969 2.173h.332v-2.486h-.273c-.117.196-.391.333-.606.333-.469 0-1.445-.411-2.618-.411-2.832 0-4.59 1.879-4.59 4.326 0 2.212 1.797 4.052 4.376 4.052 1.445 0 2.481-.548 2.832-.548.274 0 .469.176.606.548h.273v-2.956h-.332v-.02zm3.849.234 1.582-3.347 1.641 3.347H125.104zm5.977 1.214-3.34-6.46c-.137-.254-.195-.332-.254-.332-.098 0-.371.626-1.348 1.291.137.06.254.216.254.353 0 .098 0 .176-.117.391l-2.012 4.19c-.508 1.076-.821 1.428-1.583 1.428v.411h2.872v-.41c-.762 0-1.075-.216-1.075-.53 0-.175.098-.489.469-1.095h3.614c.489.763.586 1.154.586 1.291 0 .255-.254.333-1.074.333v.411h4.298v-.41c-.704 0-.899-.157-1.27-.862h-.02zm5.88-2.917h-.703v-3.327h.45c1.64 0 2.031.959 2.031 1.664 0 1.213-.84 1.663-1.797 1.663h.019zm4.064 2.976-1.309-2.036c-.332-.509-.625-.705-1.035-.705v-.039c1.289-.078 2.051-.744 2.051-1.723 0-.978-.899-2.212-3.458-2.212h-3.985v.412c.82 0 .996.058.996.626v5.853c0 .568-.195.626-.996.626v.411h3.985v-.41c-.82 0-.996-.06-.996-.627v-2.78c.84 0 1.133.118 1.348.51l1.855 3.327h2.735v-.411c-.468 0-.703-.04-1.172-.803l-.019-.02zm2.871.176c0 .568-.195.626-.996.626v.411h7.502l.605-2.31h-.371c-1.094 1.606-1.797 1.9-3.712 1.9-.879 0-1.054-.157-1.054-.549v-5.931c0-.568.195-.626.996-.626v-.412h-3.985v.412c.82 0 .996.058.996.626v5.853h.019zm9.358 0c0 .568-.176.626-.996.626v.411h3.985v-.41c-.821 0-.997-.06-.997-.627v-6.107c0-.294.137-.412.411-.412.683 0 1.836.627 2.5 1.86l.313-.117-.469-2.33h-.332a1.724 1.724 0 0 1-.782.215h-5.255c-.136 0-.273 0-.41-.058a2.089 2.089 0 0 1-.371-.157h-.332l-.488 2.33.312.117c.664-1.233 1.817-1.86 2.501-1.86.273 0 .41.118.41.412v6.107zm10.256.9c-1.485 0-2.169-1.33-2.169-3.817 0-2.486.684-3.817 2.169-3.817 1.485 0 2.168 1.331 2.168 3.817s-.683 3.817-2.168 3.817zm0-8.006c-2.129 0-4.317 1.39-4.317 4.19 0 2.798 2.188 4.188 4.317 4.188s4.317-1.39 4.317-4.189c0-2.799-2.188-4.189-4.317-4.189zm12.756 5.54-4.629-5.325h-3.107v.412c.938 0 1.075.117 1.075.92v4.443c0 1.586-.332 1.742-1.114 1.742v.411h2.872v-.41c-.918 0-1.211-.197-1.211-1.136V14.23l6.193 7.027h.468v-6.655c0-.998.528-1.096 1.055-1.096v-.412h-2.871v.412c.722 0 1.269.137 1.269 1.076v3.837zM11.428 32.886c-4.317 0-7.189-.059-7.189-.059l-.605-2.33s3.926-.547 7.794-.547c3.868 0 7.795.548 7.795.548l-.606 2.329s-2.872.059-7.189.059zm10.998-8.75-.156-.059c-.215.333-.996 1.057-2.149 1.057l-.058.117c.488.49.39 1.606-.215 1.606-.39 0-.547-.333-.606-.607l-.117-.059c-.156.117-.606.45-.723.548 0 .333.059.783.117 1.057h.118a.526.526 0 0 1 .449-.274c.273 0 .488.216.488.548 0 .548-.39 1.057-1.152 1.057-.82 0-1.544-.391-1.544-1.272 0-.45.215-.94.82-1.214v-.117c-.448-.333-.82-.881-.937-1.155h-.117c-.156.215-.723.724-1.211.822v.117c.45.45.488.881.488 1.155 0 .725-.605 1.155-1.875 1.155-.938 0-1.875-.274-1.875-1.213 0-.49.332-.783.722-.783.274 0 .606.117.82.45h.118c.215-.274.332-.45.723-.783v-.117c-.156-.118-.45-.45-.723-.823h-.117c-.39.45-.665.49-.997.49-.214 0-.546-.118-.546-.49 0-.489.605-.724 1.113-.88v-.118c-.82-.333-1.602-1.214-1.778-1.781h-.117c-.156.548-.938 1.448-1.778 1.781v.117c.489.157 1.114.392 1.114.881 0 .392-.332.49-.547.49-.332 0-.606-.059-.996-.49h-.118c-.273.392-.547.725-.722.823v.117c.39.333.488.49.722.783h.118a.966.966 0 0 1 .82-.45c.39 0 .723.274.723.783 0 .94-.938 1.213-1.876 1.213-1.27 0-1.875-.45-1.875-1.155 0-.274.059-.724.488-1.155v-.117c-.488-.117-1.054-.607-1.21-.822h-.118c-.117.274-.488.822-.938 1.155v.117c.606.274.82.783.82 1.214 0 .88-.722 1.272-1.542 1.272-.782 0-1.153-.49-1.153-1.057 0-.332.215-.548.488-.548.118 0 .333.059.45.274h.117a5.83 5.83 0 0 0 .117-1.057 5.38 5.38 0 0 0-.723-.548l-.117.059c-.059.274-.215.607-.606.607-.605 0-.722-1.116-.214-1.605l-.059-.118c-1.153 0-1.934-.724-2.149-1.057l-.156.059 2.325 5.324s-.489.215-.391.607c.215.783.879 1.781.879 2.995 0 .49-.059.548-.059.783s.157.333.391.333H19.32c.215 0 .391-.118.391-.333 0-.215-.059-.274-.059-.783 0-1.214.665-2.212.88-2.995.117-.392-.391-.607-.391-.607l2.325-5.324h-.04zM4.454 5.696a.425.425 0 0 0 .332.216c.215-.216.45-.49.45-.783-.274.058-.782.156-.782.548v.02zm10.666-2.27.157.117s.996-.45.996-1.155c0 0 0-.391-.215-.607-.117 0-.117.216-.117.333 0 .215-.157.392-.45.392-.214 0-.605-.216-.605-.607 0-.392.156-.548.156-.666 0 0 0-.058-.059-.058-.879.332-.937.724-.937.998 0 .391.156.783 1.055 1.272l.02-.02zM3.008 22.53c2.599 0 2.54-2.995 2.54-3.994 0-4.482 1.328-5.598 4.415-7.027 2.325-1.116 4.415-1.546 4.415-3.758 0-.783-.215-1.605-1.114-1.605 0 0 .333.332.333.88 0 .216-.06.45-.157.725 0-.216-.058-.49-.215-.725-.273.45-.214 1.116-.39 1.39 0 0-.118.274-.88.666 0 0-.117.117.274.117 0 0 .938 0 1.27-.391-.274.783-.606 1.057-1.114 1.057-.273 0-.722-.059-1.113-.059-.664 0-2.208.333-2.813 1.39-.45.724-1.72 1.39-2.15 1.39-.39 0-.937-.881-.937-1.273 0-.45.782-.156 1.387-.783.997-.998 1.387-1.213 2.442-1.213 0 0 .606 0 .059-.548L7.54 7.164c-.214-.215-.39-.332-.605-.332-.117 0-.332.058-.82.489-.997.117-1.387.274-1.661.45-.156.118-.273.216-.39.216-.157 0-.391-.881-.391-1.058 0-.45.488-.724.488-.998 0-.156-.156-.215-.156-.215l-.723.333s-.39-.45.059-.666c0 0 1.113-.607 3.203-1.605.118.607.274.724.782.666l-.215.058-.117.157c.156.059.488 0 .82-.118.274-.117.606-.117.664-.156.059-.059.215-.216.215-.274-.117 0-.45.058-.664.117.332-.215.488-.391.488-.49 0-.058-.058-.117-.058-.117-.156 0-.274.118-.45.06-.117-.06-.214-.157-.214-.334 0-.117.117-.215.488-.215h.273c0-.215-.547-.333-.781-.333-.273 0-.664.118-.996.274 0 0 .058-.45.547-.665.273-.118 1.719-.274 3.086-.274 1.993 0 3.477 1.722 3.751 1.722.117 0 .215-.117.059-.215-.723-.49-1.153-.881-1.153-1.39 0-.157 0-1.213 2.266-1.605.996.822 1.328 1.449 1.328 1.997 0 .94-1.054 1.057-1.152 1.448 2.598.157 4.532 3.602 4.532 5.324 0 3.093-2.93 4.385-4.747 4.757 2.657-1.996 3.653-3.993 3.653-5.363 0-2.271-2.051-3.602-2.54-3.876 1.153 1.272 1.446 2.603 1.446 3.602 0 1.938-1.211 2.877-1.211 2.877.215-.45.274-.822.274-1.155 0-.274-.06-.49-.06-.49-1.054 2.487-3.476 4.21-3.652 6.323a4.825 4.825 0 0 1-.215-1.448c0-1.781 1.113-2.877 1.113-2.877-2.148 1.487-2.656 3.21-2.656 4.54 0 1.332.547 2.33.547 2.33-.118-.49-.059-1.33.058-1.996.215 1.879 1.153 4.208 3.751 5.696-4.532 0-6.408-5.422-4.532-8.868-3.145.823-3.536 4.092-3.595 5.99a11.244 11.244 0 0 1-.273-2.388c0-3.386 2.813-4.267 4.923-5.207 3.086-1.39 4.376-2.486 4.376-4.482 0-2.114-2.481-3.426-4.318-3.054l.665.666c.117.117.273.215.273.215 1.934.998 2.207 2.114 2.207 2.76 0 1.781-1.992 2.72-3.418 3.328-4.65 1.996-5.47 2.877-5.47 5.755 0 2.114.606 5.422-1.602 5.696.156.274.938.391.938.391-.664.549-1.387.725-2.208.725-.781 0-2.324-.216-2.774-1.88.45.275 1.055.607 1.993.607l.02-.058zm3.536-12.195c-.215.215-.449.215-.547.215-.117-.274 0-.666 0-.666.215 0 .547.157.547.45zM5.94 9.61c-.215.333-.391.783-1.055.783-.664 0-1.211-.49-1.66-.49-.216 0-.333.06-.45.06-.117 0-.156-.06-.156-.118 0-.156.215-.333.547-.333.332 0 .605.157 1.113.274.723.216 1.153-.391 1.446-.606.332-.274.605-.333.879-.333.547 0 .938.274.938.274-.274 0-.88.274-1.329.548-.156-.059-.215-.117-.273-.059zM4.786 7.947c.117-.058.489-.117.489-.117.117.215.117.607.058.94-.488 0-.664-.49-.547-.823zm12.386-5.54c2.05.45 1.777 1.782 2.148 2.722-.879-1.116-2.05-1.82-2.05-1.82.116-.49-.118-.882-.118-.882l.02-.02zM19.77 12.88c0 2.33-2.99 2.604-2.99 4.874 0 .881.274 1.488.118 2.056 0 0 .606-.666.664-1.155 0 1.722.88 3.719 3.145 3.719.332 0 .82-.059 1.27-.333 0 0-.117 1.605-1.934 1.605-2.325 0-4.415-1.938-4.415-5.54 0-.665.117-1.448.489-1.996 0 0-1.114.607-1.212 2.545 0 0-.449-.666-.449-1.488 0-2.76 3.38-1.781 5.314-4.267v-.02zm-.215 11.745c2.051 0 3.086-1.057 3.086-2.662 0-.548-.156-.94-.156-.94-.547.45-1.211.549-1.602.549-.82 0-1.934-.49-1.934-1.821 0-1.723 1.817-2.603 1.817-4.541 0-.548-.215-.783-.215-.783.82-1.116 1.114-2.154 1.114-2.995 0-1.547-.82-2.545-.82-2.545l.878.45c-.39-1.487-1.211-2.486-1.211-2.486s.45.215.664.118c-.45-.216-1.113-1.057-1.113-2.545s-.332-2.33-3.204-2.819C16.527.94 15.745.215 15.374 0c-.664.333-1.66.724-1.992.998 0 0-.82.06-1.153.06-.488 0-.879-.158-1.113-.158-.665 0-1.114.666-1.114.666s-1.485.059-2.54.274c-.547.117-.879.548-1.27 1.488L3.478 4.815c-.488.274-.82.45-.82.881 0 .216.156.607.488 1.116.274 1.664.547 1.938.938 1.938.117 0 .332-.059.332-.059.117.118.39.548.45.724-.45.216-.997-.274-1.661-.274-.39 0-.997.216-.997.881 0 .216.118.274.215.274.157 0 .333-.058.723-.058.489 0 .88.45 1.66.45.274 0 .45-.059.548 0-.391.274-.606.45-.489.822.157.724.82 1.546 1.153 1.546.273 0 .781-.156.781-.156l-.332.274c-2.207 1.879-1.719 3.993-1.719 6.088 0 1.605-.45 2.603-1.719 2.603-.82 0-1.993-.49-2.872-1.605-.117.333-.156.822-.156 1.272 0 1.938 1.778 3.21 3.536 3.21 1.543 0 2.657-.45 3.75-1.33 3.146-.06 4.142-2.154 4.142-2.154 1.485 2.154 4.259 1.997 4.708 1.997.938.998 2.383 1.39 3.419 1.39v-.02zm-9.182-4.717c0 1.722-1.445 2.486-2.93 2.486 1.934-2.114.45-5.149 2.325-7.145-.157 1.781.605 3.425.605 4.659zM8.322 5.735h.059c.273 1.058 1.484 1.155 1.777 2.389l-.058.058c-.606-.88-1.446-.998-1.778-1.448-.156-.216-.156-.49 0-.999zm5.646 25.702s-.332.45-.391.45-.39-.391-.39-.45c0-.117.331-.45.39-.45s.39.333.39.45zm4.258.118s-.332.45-.39.45c-.059 0-.391-.392-.391-.45 0-.118.332-.45.39-.45.06 0 .391.332.391.45zm-1.445.783c.117 0 .215-.06.215-.216V30.91c0-.157-.118-.216-.215-.216a33.476 33.476 0 0 0-2.15-.117c-.175 0-.273.117-.273.274v1.213c0 .157.118.275.274.275h2.149zm-4.317.058a.267.267 0 0 0 .273-.274v-1.33a.267.267 0 0 0-.274-.275h-2.11a.267.267 0 0 0-.273.274v1.331c0 .157.117.274.274.274h2.11zm-3.595-.94c0-.117.332-.45.39-.45.06 0 .391.333.391.45 0 .06-.332.451-.39.451-.059 0-.391-.392-.391-.45zm-4.259.118c0-.117.332-.45.391-.45s.39.333.39.45c0 .059-.331.45-.39.45s-.39-.391-.39-.45zm1.446.783h2.149a.267.267 0 0 0 .273-.274V30.87a.267.267 0 0 0-.273-.275c-.45 0-1.485.06-2.15.118-.116 0-.214.059-.214.215v1.214c0 .156.117.215.215.215zm4.806-.88c0-.157.449-.608.547-.608.058 0 .488.45.488.607 0 .059-.45.548-.488.548-.118 0-.547-.489-.547-.548zm4.317 0c0-.157.45-.608.547-.608.058 0 .488.45.488.607 0 .059-.449.548-.488.548-.117 0-.547-.489-.547-.548zm-8.576 0c0-.157.45-.608.547-.608.059 0 .488.45.488.607 0 .059-.449.548-.488.548-.117 0-.547-.489-.547-.548zM43.368 32.024c0-.92-.586-1.683-1.641-1.683h-.938v3.347h.938c1.035 0 1.64-.744 1.64-1.664zm-3.106 2.154V29.89h1.465c1.328 0 2.188.94 2.188 2.153s-.86 2.153-2.188 2.153h-1.465v-.02zM45.595 32.514V29.89h.528v2.623c0 .783.43 1.272 1.21 1.272.782 0 1.212-.49 1.212-1.272V29.89h.527v2.623c0 1.076-.586 1.742-1.738 1.742-1.153 0-1.739-.685-1.739-1.742zM53.565 32.964c0-.392-.273-.744-.8-.744h-1.31v1.488h1.31c.507 0 .8-.274.8-.744zm-.078-1.899c0-.391-.254-.705-.742-.705h-1.29v1.39h1.29c.488 0 .742-.293.742-.685zm-2.56 3.113V29.89h1.915c.743 0 1.192.45 1.192 1.096 0 .548-.352.9-.742.979.449.078.84.548.84 1.056 0 .686-.45 1.156-1.231 1.156h-1.974zM57.394 30.439l-.918 2.31h1.816l-.898-2.31zm1.446 3.739-.372-.96H56.34l-.371.96h-.606l1.72-4.287h.663l1.72 4.287h-.626zM60.852 34.177V29.87h.528v4.307h-.528zM63.314 35l-.234-.196c.214-.137.39-.391.41-.607h-.098c-.176 0-.313-.137-.313-.332 0-.196.157-.353.333-.353.215 0 .41.176.41.49 0 .391-.235.763-.528.978l.02.02zM67.826 32.025c0-1.312.977-2.212 2.208-2.212.762 0 1.29.371 1.621.841l-.45.255a1.447 1.447 0 0 0-1.171-.627c-.938 0-1.641.725-1.641 1.743 0 1.017.703 1.742 1.64 1.742.49 0 .939-.255 1.173-.627l.45.255c-.352.489-.88.841-1.642.841-1.23 0-2.207-.9-2.207-2.211h.02zM75.68 31.183c0-.49-.351-.823-.86-.823h-1.132v1.645h1.133c.508 0 .86-.333.86-.822zm-.039 2.995-1.094-1.703h-.86v1.703h-.527V29.89h1.72c.78 0 1.347.509 1.347 1.292s-.527 1.194-1.113 1.252l1.152 1.742h-.625zM77.906 34.177V29.87h2.813v.49h-2.285v1.37h2.227v.49h-2.227v1.467h2.285v.49h-2.813zM82.4 34.177V29.87h2.793v.49h-2.266v1.37h2.227v.49h-2.227v1.467h2.266v.49H82.4zM89.472 34.177l-1.64-1.938-.43.489v1.449h-.528V29.87h.527v2.232l1.895-2.232h.684l-1.797 2.055 1.953 2.252h-.664zM91.308 33.57l.313-.41c.273.313.742.606 1.347.606.762 0 1.016-.41 1.016-.744 0-1.115-2.54-.489-2.54-2.035 0-.705.626-1.194 1.466-1.194.664 0 1.172.215 1.524.606l-.313.392c-.313-.352-.762-.51-1.23-.51-.509 0-.88.275-.88.686 0 .96 2.54.411 2.54 2.016 0 .627-.43 1.253-1.583 1.253-.742 0-1.289-.274-1.64-.685l-.02.02zM96.153 34.177V29.87h.547v4.307h-.547zM101.642 32.024c0-.92-.586-1.683-1.641-1.683h-.938v3.347h.938c1.035 0 1.641-.744 1.641-1.664zm-3.106 2.154V29.89H100c1.328 0 2.188.94 2.188 2.153s-.86 2.153-2.188 2.153h-1.466v-.02zM103.85 34.177V29.87h2.813v.49h-2.286v1.37h2.227v.49h-2.227v1.467h2.286v.49h-2.813z" fill="#fff"/></svg>